{"title":"The Texans  (Western 1938)  Randolph Scott, Joan Bennett &amp; M","uid":9416202,"size":572421838,"categoryP":"video","categoryS":"movies","magnet":"?xt=urn:btih:7845b2855e152cb74b6f2121bbe8e663041bf8e9&amp;dn=The+Texans++%28Western+1938%29++Randolph+Scott%2C+Joan+Bennett+%26amp%3B+M&amp;tr=udp%3A%2F%2Ftracker.openbittorrent.com%3A80&amp;tr=udp%3A%2F%2Fopen.demonii.com%3A1337&amp;tr=udp%3A%2F%2Ftracker.coppersurfer.tk%3A6969&amp;tr=udp%3A%2F%2Fexodus.desync.com%3A6969","seeders":4,"leechers":2,"uploader":"BurtonW","files":1,"time":1388449353,"description":" &lt;a href=&quot;http://www.imdb.com/title/tt0030850/?ref_=fn_al_tt_1&quot; rel=&quot;nofollow&quot; target=&quot;_NEW&quot;&gt;http://www.imdb.com/title/tt0030850/?ref_=fn_al_tt_1&lt;/a&gt;\n\n\nA very good quality film.\n\n\nNo subtitles!\n\n\nStoryline:\n\nAfter the Civil War, an ex-Confederate soldier faces new battles, including the elements and a carpetbagger intent on destroying him.\n\n\nTechnical info:\n\n\nGeneral:\n\nComplete name:                  : The Texans  (Western 1938)  Randolph Scott, Joan Bennett &amp; May Robson.mp4\n\nFormat                         : MPEG-4\nFormat profile                 : Base Media / Version 2\nCodec ID                       : mp42\nFile size                      : 546 MiB\nDuration                       : 1h 32mn\nOverall bit rate mode          : Variable\nOverall bit rate               : 821 Kbps\nEncoded date                   : UTC 2013-12-16 13:03:49\nTagged date                    : UTC 2013-12-16 17:50:50\n\n\nVideo:\n\nID                             : 1\nFormat                         : AVC\nFormat/Info                    : Advanced Video Codec\nFormat profile                 : &lt;a class=&quot;__cf_email__&quot; href=&quot;/cdn-cgi/l/email-protection&quot; data-cfemail=&quot;460b272f28060a726876&quot;&gt;[email&amp;#160;protected]&lt;/a&gt;&lt;script cf-hash='f9e31' type=&quot;text/javascript&quot;&gt;\n/* &lt;![CDATA[ */!function(){try{var t=&quot;currentScript&quot;in document?document.currentScript:function(){for(var t=document.getElementsByTagName(&quot;script&quot;),e=t.length;e--;)if(t[e].getAttribute(&quot;cf-hash&quot;))return t[e]}();if(t&amp;&amp;t.previousSibling){var e,r,n,i,c=t.previousSibling,a=c.getAttribute(&quot;data-cfemail&quot;);if(a){for(e=&quot;&quot;,r=parseInt(a.substr(0,2),16),n=2;a.length-n;n+=2)i=parseInt(a.substr(n,2),16)^r,e+=String.fromCharCode(i);e=document.createTextNode(e),c.parentNode.replaceChild(e,c)}}}catch(u){}}();/* ]]&gt; */&lt;/script&gt;\nFormat settings, CABAC         : Yes\nFormat settings, ReFrames      : 16 frames\nCodec ID                       : avc1\nCodec ID/Info                  : Advanced Video Coding\nDuration                       : 1h 32mn\nBit rate mode                  : Variable\nBit rate                       : 656 Kbps\nWidth                          : 640 pixels\nHeight                         : 480 pixels\nDisplay aspect ratio           : 4:3\nFrame rate mode                : Variable\nFrame rate                     : 23.976 fps\nMinimum frame rate             : 23.974 fps\nMaximum frame rate             : 23.981 fps\nColor space                    : YUV\nChroma subsampling             : 4:2:0\nBit depth                      : 8 bits\nScan type                      : Progressive\nBits/(Pixel*Frame)             : 0.089\nStream size                    : 436 MiB (80%)\nWriting library                : x264 core 130 r2273 b3065e6\nEncoding settings              : Deleted\nEncoded date                   : UTC 2013-12-16 13:03:49\nTagged date                    : UTC 2013-12-16 17:50:50\nColor primaries                : BT.601 NTSC\nTransfer characteristics       : BT.709\nMatrix coefficients            : BT.601\n\nAudio:\n\nID                             : 2\nFormat                         : AAC\nFormat/Info                    : Advanced Audio Codec\nFormat profile                 : LC\nCodec ID                       : 40\nDuration                       : 1h 32mn\nBit rate mode                  : Variable\nBit rate                       : 160 Kbps\nMaximum bit rate               : 267 Kbps\nChannel(s)                     : 2 channels\nChannel positions              : Front: L R\nSampling rate                  : 48.0 KHz\nCompression mode               : Lossy\nDelay relative to video        : 83ms\nStream size                    : 106 MiB (19%)\nEncoded date                   : UTC 2013-12-16 13:03:49\nTagged date                    : UTC 2013-12-16 17:50:49\n\n","torrent":{"xt":"urn:btih:7845b2855e152cb74b6f2121bbe8e663041bf8e9","amp;dn":"The+Texans++%28Western+1938%29++Randolph+Scott%2C+Joan+Bennett+%26amp%3B+M","amp;tr":["udp%3A%2F%2Ftracker.openbittorrent.com%3A80","udp%3A%2F%2Fopen.demonii.com%3A1337","udp%3A%2F%2Ftracker.coppersurfer.tk%3A6969","udp%3A%2F%2Fexodus.desync.com%3A6969"],"infoHash":"7845b2855e152cb74b6f2121bbe8e663041bf8e9","infoHashBuffer":{"type":"Buffer","data":[120,69,178,133,94,21,44,183,75,111,33,33,187,232,230,99,4,27,248,233]},"announce":[],"urlList":[]}}